<svg xmlns="http://www.w3.org/2000/svg" width="500.016" height="137" viewBox="0 0 500.016 137"><path d="M142.507 3.046c-.38.275-59.08 42.95-59.08 42.95H81.39l60.426-43.9c.574-.418 1.265.533.69.95zm5.793 8.144l-47.91 34.807h-1.9l49.123-35.76c.574-.416 1.265.535.69.952zm5.873 8.082L117.39 45.997h-2l38.092-27.676c.574-.41 1.265.54.69.96zm5.874 8.084l-25.656 18.64h-2.03l27.01-19.59c.58-.418 1.27.533.69.95zm5.873 8.084l-14.53 10.557h-2.04l15.88-11.507c.573-.417 1.264.533.69.95zm-78.452 57L26.51 136.726c-.574.417-1.265-.534-.69-.95.378-.276 59.648-43.338 59.648-43.338m-15 .002l-49.832 36.203c-.574.417-1.265-.534-.69-.95L68.428 92.44m-14.96 0l-38.705 28.12c-.574.416-1.265-.535-.69-.952l37.356-27.17m-31.97.002L3.01 104.39c-.574.417-1.265-.534-.69-.95l15.11-11.002m19.037.002S9.547 112 8.89 112.475c-.574.417-1.265-.534-.69-.95l26.228-19.087"/><path fill="#0578AE" d="M16.875 84.51c1.148 0 2.273-.16 3.375-.476s2.086-.777 2.953-1.39c.867-.608 1.57-1.356 2.11-2.25.538-.89.808-1.92.808-3.093 0-1.4-.36-2.65-1.09-3.74s-1.68-2.09-2.86-3.02c-1.18-.92-2.53-1.78-4.04-2.58-1.51-.79-3.06-1.6-4.64-2.42-1.58-.82-3.13-1.67-4.64-2.56S5.99 61.09 4.81 60s-2.14-2.316-2.864-3.676C1.21 54.96.846 53.4.846 51.64s.328-3.39.984-4.89c.653-1.497 1.62-2.806 2.9-3.92 1.274-1.11 2.845-1.98 4.71-2.6 1.86-.62 4-.933 6.414-.933 2.18 0 4.125.232 5.836.7 1.71.473 3.21 1.15 4.5 2.04 1.29.894 2.386 2.005 3.288 3.34s1.63 2.86 2.193 4.57L27.7 51.78c-.468-1.428-1.06-2.725-1.774-3.885s-1.57-2.156-2.566-2.988c-.996-.83-2.145-1.477-3.445-1.934s-2.77-.682-4.412-.682c-1.453 0-2.725.21-3.814.62-1.09.41-2 .94-2.71 1.59-.72.65-1.26 1.39-1.62 2.22-.37.84-.55 1.67-.55 2.52 0 1.22.37 2.34 1.12 3.34.75 1.01 1.73 1.96 2.95 2.85 1.22.89 2.6 1.75 4.16 2.58 1.56.84 3.14 1.68 4.76 2.53 1.62.86 3.2 1.75 4.76 2.67 1.56.93 2.94 1.94 4.16 3.05 1.22 1.11 2.2 2.31 2.95 3.62.75 1.32 1.12 2.78 1.12 4.4 0 1.83-.35 3.55-1.04 5.15-.7 1.61-1.73 3.01-3.12 4.2s-3.11 2.15-5.17 2.83c-2.07.7-4.47 1.04-7.21 1.04-2.21 0-4.18-.24-5.93-.74s-3.29-1.2-4.63-2.12c-1.33-.92-2.48-2.06-3.42-3.39S.61 78.36 0 76.67l4.184-1.724c.47 1.5 1.113 2.844 1.934 4.025.82 1.19 1.775 2.19 2.865 3.01 1.09.82 2.303 1.45 3.64 1.88 1.334.44 2.752.65 4.252.65zm38.075 2.636c-2.32 0-4.5-.457-6.54-1.37s-3.814-2.167-5.326-3.763c-1.512-1.594-2.7-3.457-3.568-5.59-.867-2.13-1.3-4.416-1.3-6.855 0-2.672.48-5.186 1.44-7.54s2.28-4.41 3.955-6.17 3.64-3.145 5.88-4.165 4.63-1.53 7.16-1.53c1.99 0 3.83.218 5.5.65 1.68.437 3.12 1.026 4.33 1.776s2.15 1.64 2.83 2.67c.68 1.03 1.02 2.14 1.02 3.34 0 .54-.13 1.05-.4 1.53s-.63.89-1.07 1.24-.95.63-1.51.82c-.56.2-1.12.3-1.69.3-.63 0-1.2-.11-1.72-.34-.51-.23-.95-.52-1.31-.9s-.64-.79-.82-1.25-.28-.93-.28-1.43c0-.82-.09-1.59-.26-2.3-.17-.72-.48-1.33-.93-1.85-.44-.52-1.05-.92-1.81-1.21-.76-.3-1.74-.44-2.93-.44-1.61 0-3.06.32-4.32.96-1.26.64-2.33 1.52-3.21 2.63-.88 1.11-1.55 2.41-2.02 3.88s-.7 3.06-.7 4.74c0 2.25.3 4.39.88 6.41.59 2.02 1.43 3.8 2.52 5.32 1.09 1.52 2.39 2.73 3.9 3.62 1.517.89 3.21 1.34 5.08 1.34 1.64 0 3.07-.26 4.29-.78 1.22-.52 2.277-1.22 3.168-2.1s1.66-1.9 2.3-3.06 1.21-2.39 1.7-3.71l2.14.84c-.604 2.23-1.413 4.22-2.42 5.98s-2.204 3.24-3.59 4.46c-1.38 1.22-2.94 2.15-4.66 2.79s-3.6.97-5.64.97zm38.682 0c-2.502 0-4.81-.475-6.922-1.424s-3.936-2.244-5.467-3.885c-1.53-1.64-2.728-3.555-3.59-5.748-.863-2.2-1.294-4.53-1.294-7.02 0-2.63.43-5.09 1.29-7.38.86-2.3 2.06-4.3 3.59-6.02 1.53-1.71 3.35-3.06 5.46-4.05s4.42-1.48 6.92-1.48c2.48 0 4.77.45 6.87 1.35 2.1.9 3.92 2.14 5.46 3.72s2.74 3.43 3.6 5.55c.86 2.12 1.29 4.39 1.29 6.8 0 2.69-.43 5.23-1.3 7.59-.86 2.37-2.07 4.44-3.61 6.2-1.54 1.77-3.36 3.17-5.47 4.2-2.1 1.03-4.4 1.55-6.87 1.55zm1.228-2.637c1.272 0 2.442-.36 3.51-1.08 1.067-.72 1.983-1.68 2.75-2.89.765-1.21 1.363-2.62 1.795-4.22.43-1.61.646-3.3.646-5.08 0-2.55-.2-4.96-.61-7.21s-1.06-4.21-1.97-5.87c-.9-1.67-2.09-2.98-3.56-3.94-1.46-.96-3.25-1.44-5.37-1.44-1.1 0-2.15.34-3.17 1.03-1.01.69-1.91 1.62-2.68 2.79-.77 1.17-1.39 2.55-1.86 4.15-.46 1.59-.69 3.28-.69 5.06 0 2.58.26 5 .76 7.27.51 2.28 1.24 4.26 2.2 5.94.96 1.69 2.14 3.02 3.53 3.99 1.39.98 2.97 1.46 4.74 1.46zm23.76-33.65h7.032v6.71c.703-.99 1.447-1.93 2.232-2.83.785-.9 1.605-1.69 2.46-2.37.855-.68 1.734-1.22 2.637-1.62.91-.4 1.84-.6 2.8-.6.78 0 1.5.12 2.16.35.67.23 1.25.54 1.74.93s.88.84 1.16 1.35c.28.51.42 1.05.42 1.62 0 1.15-.35 2.02-1.07 2.6-.71.58-1.7.88-2.97.88-.8 0-1.43-.09-1.91-.25s-.91-.35-1.3-.56-.77-.4-1.16-.56c-.38-.17-.88-.25-1.49-.25-.47 0-.94.13-1.4.4-.47.27-.94.65-1.4 1.14s-.94 1.08-1.42 1.76c-.48.68-.96 1.42-1.46 2.21v24.58h-7.03v-35.5zm42.165 36.28c-2.287 0-4.443-.45-6.47-1.36-2.03-.9-3.794-2.13-5.296-3.69-1.51-1.56-2.69-3.38-3.57-5.47-.88-2.09-1.31-4.31-1.31-6.68 0-2.84.4-5.47 1.19-7.89.79-2.43 1.93-4.52 3.39-6.28 1.46-1.76 3.22-3.14 5.27-4.13 2.05-1 4.33-1.5 6.84-1.5 2.22 0 4.26.41 6.11 1.23 1.86.82 3.45 1.91 4.77 3.28s2.36 2.96 3.1 4.78c.74 1.81 1.11 3.7 1.11 5.67h-25.31c0 2.39.29 4.6.89 6.62.59 2.02 1.42 3.78 2.47 5.25s2.31 2.63 3.78 3.46c1.47.83 3.08 1.25 4.82 1.25 1.48 0 2.89-.25 4.23-.74 1.34-.5 2.56-1.15 3.66-1.95 1.09-.81 2.03-1.74 2.8-2.78.77-1.04 1.31-2.12 1.63-3.22l1.91.91c-.49 1.8-1.28 3.51-2.35 5.11-1.08 1.6-2.34 3-3.79 4.2s-3.03 2.14-4.74 2.83c-1.72.69-3.45 1.04-5.2 1.04zm6.722-24.86c0-1.34-.225-2.59-.672-3.75-.45-1.16-1.07-2.17-1.867-3.03-.795-.86-1.725-1.53-2.79-2.01-1.063-.48-2.2-.72-3.41-.72-1.01 0-1.98.24-2.91.72-.93.48-1.763 1.14-2.503 1.98s-1.344 1.85-1.814 3.01-.76 2.4-.87 3.74l16.84.03z"/><path fill="#FCB423" d="M238.433 40.354v2.953h-24.258V59.76h16.242v2.988h-16.242v20.635h24.258v2.988H206.44V40.36h31.993zm5.24 46.018h-3.87l14.874-18.14L242.09 50.9h8.298l8.72 11.917 9.737-11.92h3.868L260.9 65.28l15.26 21.094h-8.334l-11.32-15.68-12.833 15.68zm49.572.774c-2.32 0-4.5-.457-6.54-1.37s-3.813-2.167-5.325-3.763c-1.512-1.594-2.7-3.457-3.568-5.59-.867-2.13-1.3-4.416-1.3-6.855 0-2.672.48-5.186 1.44-7.54s2.28-4.41 3.955-6.17 3.633-3.145 5.87-4.165 4.624-1.53 7.155-1.53c1.992 0 3.826.218 5.502.65 1.676.437 3.117 1.026 4.324 1.776 1.207.75 2.15 1.64 2.83 2.67.68 1.03 1.02 2.14 1.02 3.34 0 .54-.136 1.05-.405 1.53-.27.48-.627.89-1.072 1.24s-.94.63-1.51.82c-.56.2-1.12.3-1.69.3-.63 0-1.2-.11-1.72-.34-.51-.23-.95-.52-1.32-.9-.36-.38-.64-.79-.82-1.25s-.28-.93-.28-1.43c0-.82-.09-1.59-.26-2.3-.17-.72-.48-1.33-.93-1.85-.44-.52-1.05-.92-1.81-1.21-.76-.3-1.74-.44-2.93-.44-1.61 0-3.06.32-4.32.96-1.26.64-2.33 1.52-3.21 2.63-.88 1.11-1.55 2.41-2.02 3.88s-.7 3.05-.7 4.74c0 2.25.29 4.39.88 6.41.59 2.02 1.42 3.8 2.51 5.32 1.09 1.52 2.39 2.73 3.91 3.62 1.51.89 3.21 1.34 5.08 1.34 1.64 0 3.07-.26 4.29-.78 1.22-.52 2.27-1.22 3.16-2.1s1.66-1.895 2.31-3.06 1.22-2.39 1.71-3.705l2.15.84c-.61 2.23-1.42 4.22-2.43 5.98s-2.2 3.245-3.59 4.462c-1.38 1.22-2.93 2.15-4.66 2.79s-3.6.97-5.64.97zM323.2 57.37c2.133-2.412 4.354-4.22 6.662-5.414s4.67-1.793 7.084-1.793c1.242 0 2.402.28 3.48.844s2.02 1.324 2.83 2.285c.81.963 1.447 2.098 1.916 3.41.47 1.314.703 2.707.703 4.184v25.486h-7.066v-24.29c0-2.343-.53-4.118-1.57-5.327-1.05-1.207-2.41-1.81-4.1-1.81-1.53 0-3.17.47-4.93 1.405-1.76.938-3.44 2.18-5.03 3.727v26.295h-7.07v-51.64l5.02-2.04h2.04V57.37zm57.06 29.002h-7.066V81.52c-.82.633-1.635 1.283-2.443 1.95s-1.68 1.272-2.61 1.812-1.97.984-3.11 1.336-2.45.527-3.95.527c-1.4 0-2.67-.23-3.78-.686s-2.07-1.08-2.86-1.87-1.4-1.72-1.82-2.8c-.42-1.08-.63-2.25-.63-3.52 0-1.53.3-2.9.91-4.13s1.44-2.33 2.48-3.29 2.26-1.82 3.66-2.57c1.4-.75 2.89-1.42 4.47-2 1.58-.59 3.2-1.11 4.85-1.58 1.65-.47 3.28-.9 4.87-1.3v-2.2c0-1.62-.16-2.98-.47-4.1-.31-1.11-.77-2.01-1.37-2.69-.59-.68-1.32-1.17-2.18-1.46-.85-.3-1.81-.44-2.86-.44-1.2 0-2.17.15-2.92.46-.75.3-1.34.71-1.76 1.23-.42.51-.71 1.09-.86 1.74-.15.64-.23 1.29-.23 1.95 0 .61-.05 1.2-.14 1.77-.09.58-.27 1.08-.54 1.52-.27.44-.64.78-1.09 1.04-.45.26-1.03.39-1.74.39-1.1 0-1.99-.39-2.67-1.17-.68-.79-1.02-1.78-1.02-2.98 0-1.17.39-2.27 1.16-3.29s1.81-1.9 3.11-2.64 2.82-1.32 4.56-1.74 3.56-.64 5.49-.64c2.32 0 4.28.22 5.89.67 1.6.44 2.9 1.08 3.9 1.9.995.82 1.716 1.81 2.16 2.97s.666 2.46.666 3.88v26.8zM373.194 65.7c-1.008.33-2.057.7-3.146 1.107-1.09.41-2.162.875-3.217 1.39-1.05.515-2.05 1.077-2.98 1.687-.94.61-1.76 1.262-2.48 1.95-.71.692-1.28 1.42-1.7 2.18-.42.763-.63 1.565-.63 2.41 0 .866.16 1.687.48 2.46.32.773.75 1.455 1.29 2.04s1.15 1.05 1.83 1.388c.68.34 1.4.51 2.15.51.8 0 1.56-.1 2.27-.3.72-.196 1.41-.474 2.09-.825s1.36-.76 2.02-1.23c.67-.47 1.36-.97 2.06-1.512V65.7zm16.453-14.834h7.066v6.504c2.133-2.412 4.354-4.22 6.662-5.414s4.67-1.793 7.084-1.793c1.24 0 2.4.28 3.48.844s2.02 1.324 2.83 2.285c.8.963 1.44 2.098 1.91 3.41.47 1.314.7 2.707.7 4.184v25.486h-7.07v-24.29c0-2.343-.52-4.118-1.57-5.327-1.05-1.207-2.4-1.81-4.06-1.81-.75 0-1.54.122-2.38.368s-1.69.594-2.55 1.037c-.87.445-1.73.984-2.59 1.617s-1.68 1.336-2.48 2.11V86.37h-7.07V50.867zm73.09 1.864v2.952h-6.75c.68.963 1.236 2.045 1.67 3.252.434 1.21.65 2.396.65 3.568 0 1.85-.404 3.53-1.213 5.043s-1.945 2.812-3.41 3.902-3.205 1.934-5.22 2.53-4.23.897-6.646.897c-.89 0-1.805-.074-2.742-.23-.938-.15-1.746-.345-2.426-.58-.68.542-1.254 1.18-1.723 1.917s-.703 1.49-.703 2.24c0 .68.393 1.25 1.178 1.69.785.45 1.88.69 3.287.74l13.14.56c2.11.1 3.86.35 5.25.76 1.39.41 2.51.96 3.34 1.64.83.68 1.42 1.49 1.77 2.43.35.94.52 1.98.52 3.13 0 2.07-.48 3.94-1.44 5.61s-2.35 3.1-4.17 4.27-4.03 2.08-6.63 2.73-5.55.97-8.83.97c-5.88 0-10.27-.65-13.17-1.97s-4.34-3.07-4.34-5.27c0-.96.24-1.89.73-2.79s1.12-1.76 1.88-2.58 1.6-1.61 2.53-2.37c.92-.77 1.83-1.5 2.72-2.2-1.31-.42-2.41-1-3.29-1.72-.88-.72-1.32-1.59-1.32-2.6 0-.7.18-1.43.56-2.19.37-.76.89-1.49 1.54-2.19s1.42-1.36 2.3-1.95 1.81-1.07 2.79-1.43c-2.42-1.03-4.3-2.45-5.64-4.27-1.35-1.81-2.02-3.89-2.02-6.24 0-1.75.4-3.41 1.21-4.95s1.92-2.9 3.32-4.06 3.06-2.08 4.96-2.75 3.94-1 6.11-1c1.06 0 2.1.07 3.13.216s2 .33 2.9.563c.91.23 1.7.5 2.39.81.7.3 1.23.63 1.6.98h10.13zm-28.512 33.36c-1.055.774-1.857 1.724-2.408 2.85-.55 1.126-.826 2.18-.826 3.165 0 .797.29 1.56.85 2.285s1.4 1.365 2.52 1.916 2.51.99 4.19 1.318 3.63.492 5.86.492c2.37 0 4.49-.188 6.35-.562s3.45-.873 4.75-1.494 2.29-1.312 2.97-2.074 1.02-1.53 1.02-2.303c0-1.57-.78-2.72-2.35-3.447-1.57-.727-3.73-1.09-6.47-1.09-1.69 0-3.4-.04-5.13-.123s-3.35-.176-4.87-.28-2.83-.218-3.97-.335-1.95-.223-2.44-.317zm8.79-13.077c1.007 0 1.968-.23 2.882-.686s1.723-1.076 2.426-1.863c.703-.785 1.266-1.705 1.688-2.76s.64-2.19.64-3.41c0-1.732-.23-3.342-.7-4.832-.47-1.488-1.1-2.78-1.91-3.885-.81-1.102-1.75-1.97-2.83-2.602s-2.22-.95-3.44-.95c-1.19 0-2.22.247-3.09.74s-1.58 1.173-2.14 2.038c-.56.867-.98 1.88-1.24 3.04s-.4 2.423-.4 3.78c0 1.594.2 3.088.6 4.48.4 1.395.96 2.602 1.67 3.62s1.57 1.825 2.57 2.41c1 .587 2.11.88 3.32.88zm40.94 14.133c-2.284 0-4.44-.45-6.47-1.354-2.027-.9-3.793-2.13-5.293-3.69-1.502-1.56-2.69-3.38-3.566-5.468-.873-2.086-1.31-4.31-1.31-6.68 0-2.834.397-5.467 1.192-7.89.795-2.427 1.928-4.52 3.396-6.276s3.23-3.133 5.277-4.13c2.06-.997 4.34-1.495 6.85-1.495 2.22 0 4.26.41 6.12 1.23 1.86.822 3.45 1.916 4.78 3.287s2.36 2.967 3.09 4.78c.74 1.817 1.11 3.708 1.11 5.677h-25.31c0 2.39.3 4.602.89 6.627.6 2.027 1.42 3.78 2.48 5.256s2.31 2.633 3.78 3.463c1.47.832 3.08 1.248 4.83 1.248 1.48 0 2.89-.24 4.24-.73s2.57-1.14 3.67-1.95 2.04-1.73 2.81-2.78c.77-1.04 1.32-2.11 1.63-3.21l1.92.92c-.49 1.81-1.27 3.51-2.35 5.12-1.07 1.61-2.34 3.01-3.78 4.2s-3.03 2.14-4.74 2.83c-1.71.7-3.44 1.04-5.19 1.04zm6.725-24.854c0-1.336-.225-2.584-.674-3.744-.447-1.16-1.07-2.166-1.865-3.023-.79-.855-1.72-1.523-2.78-2.004-1.06-.47-2.2-.72-3.41-.72-1.01 0-1.98.25-2.9.72-.93.48-1.76 1.15-2.5 1.99-.74.85-1.34 1.85-1.81 3.01s-.76 2.41-.87 3.75l16.84.04z"/></svg>